<svg width="216" height="204" viewBox="0 0 216 204" fill="none" xmlns="http://www.w3.org/2000/svg">
<path d="M55.283 25.4432C55.283 25.4432 58.7733 6.68809 58.7733 4.07179C58.7733 1.45549 61.3879 1.01789 64.0055 4.50809C66.6232 7.99679 78.3995 25.0068 78.3995 25.0068L55.2757 25.441L55.283 25.4432Z" fill="white" stroke="#20201E" stroke-width="3.4947"/>
<path d="M211.77 169.301C210.587 160.843 208.971 152.78 207.001 145.114L200.682 142.592L204.9 137.544C202.497 129.436 199.704 121.801 196.632 114.624L190.65 112.934L193.609 107.877C190.395 101.052 186.945 94.686 183.363 88.7578L177.786 87.6379L179.79 83.0339C175.771 76.837 171.645 71.1775 167.549 66.0406L161.647 65.3939L163.223 60.7978C158.434 55.1723 153.767 50.2795 149.45 46.0996L143.548 45.7678L144.577 41.5388C134.048 32.0115 126.607 27.3751 126.607 27.3751L113.233 31.4474C113.233 31.4474 106.84 27.9571 101.604 24.4684C101.604 24.4684 98.114 12.8379 96.9559 6.44129C95.7884 0.0446928 92.3012 2.951 91.1368 4.6962C89.9754 6.4413 77.9072 19.8138 77.9072 19.8138C77.9072 19.8138 70.6899 18.8276 65.5471 19.8138C57.992 21.2716 54.5021 26.358 45.7733 34.6441C39.4166 40.689 35.6009 45.9873 33.4224 51.6541C31.2411 57.324 33.8555 57.324 32.9891 62.5578C32.1104 67.7916 8.55782 107.043 5.94622 111.841C3.32552 116.639 -2.99116 131.311 9.43335 140.626C12.9172 143.244 15.5411 144.556 17.7194 145.424C17.7194 145.424 21.2065 144.556 22.5154 142.811C22.7489 142.499 22.8658 142.308 22.9241 142.202C22.9886 142.078 22.9671 142.086 22.9241 142.202C22.792 142.542 22.4877 143.817 23.8242 145.424C26.0056 148.043 28.8077 147.848 30.3652 148.043C32.691 148.335 36.9063 146.301 40.3993 141.064C43.8896 135.83 46.0709 134.083 48.6887 131.031C51.3002 127.978 65.7373 121.224 71.3688 111.841C72.6745 109.664 75.7284 110.532 77.9066 112.279C80.088 114.024 92.3007 114.462 97.533 105.735C97.533 105.735 100.006 128.679 89.6832 144.554C72.6748 170.723 43.8886 177.261 35.1645 201.69H213.985C213.985 193.249 213.54 185.144 212.735 177.348L206.79 174.211L211.918 169.366L211.77 169.301Z" fill="white"/>
<path d="M22.9241 142.202C22.8658 142.308 22.7489 142.499 22.5154 142.811C21.2065 144.556 17.7194 145.424 17.7194 145.424C15.5411 144.556 12.9172 143.244 9.43335 140.626C-2.99116 131.311 3.32552 116.639 5.94622 111.841C8.55782 107.043 32.1104 67.7916 32.9891 62.5578C33.8555 57.324 31.2411 57.324 33.4224 51.6541C35.6009 45.9873 39.4166 40.689 45.7733 34.6441C54.5021 26.358 57.992 21.2716 65.5471 19.8138C70.6899 18.8276 77.9072 19.8138 77.9072 19.8138C77.9072 19.8138 89.9754 6.4413 91.1368 4.6962C92.3012 2.951 95.7884 0.0446928 96.9559 6.44129C98.114 12.8379 101.604 24.4684 101.604 24.4684C106.84 27.9571 113.233 31.4474 113.233 31.4474L126.607 27.3751C126.607 27.3751 134.048 32.0115 144.577 41.5388L143.548 45.7678L149.45 46.0996C153.767 50.2795 158.434 55.1723 163.223 60.7978L161.647 65.3939L167.549 66.0406C171.645 71.1775 175.771 76.837 179.79 83.0339L177.786 87.6379L183.363 88.7578C186.945 94.686 190.395 101.052 193.609 107.877L190.65 112.934L196.632 114.624C199.704 121.801 202.497 129.436 204.9 137.544L200.682 142.592L207.001 145.114C208.971 152.78 210.587 160.843 211.77 169.301L211.918 169.366L206.79 174.211L212.735 177.348C213.54 185.144 213.985 193.249 213.985 201.69H35.1645C43.8886 177.261 72.6748 170.723 89.6832 144.554C100.006 128.679 97.533 105.735 97.533 105.735C92.3007 114.462 80.088 114.024 77.9066 112.279C75.7284 110.532 72.6745 109.664 71.3688 111.841C65.7373 121.224 51.3002 127.978 48.6887 131.031C46.0709 134.083 43.8896 135.83 40.3993 141.064C36.9063 146.301 32.691 148.335 30.3652 148.043C28.8077 147.848 26.0056 148.043 23.8242 145.424C22.4877 143.817 22.792 142.542 22.9241 142.202ZM22.9241 142.202C22.9671 142.086 22.9886 142.078 22.9241 142.202Z" stroke="#20201E" stroke-width="3.4947"/>
<path d="M119.621 37.2725C119.621 37.2725 195.797 94.2671 195.797 197.195" stroke="#20201E" stroke-width="2.684"/>
<path d="M103.922 76.8063C105.375 93.0851 97.8139 104.716 97.525 105.732C97.525 105.732 115.845 96.285 117.588 83.779" stroke="#20201E" stroke-width="2.684"/>
<path d="M97.5351 105.75C97.5351 105.75 109.748 111.715 118.762 107.935" stroke="#20201E" stroke-width="2.684"/>
<path d="M22.5008 142.811C22.5008 142.811 30.6425 132.342 32.9744 127.545" stroke="#20201E" stroke-width="2.684"/>
<path d="M72.6809 45.5625C72.6809 45.5625 59.2701 45.6255 54.7998 52.9747C48.6951 63.0076 55.6692 64.3148 55.6692 64.3148C55.6692 64.3148 62.6465 66.4977 67.4455 59.9553C72.5548 52.9886 68.3182 48.6152 68.3182 48.6152L72.6598 45.5603L72.6809 45.5625Z" stroke="#20201E" stroke-width="2.684"/>
<path d="M7.68256 120.128C12.4817 118.821 15.5356 119.258 17.714 120.566C17.714 120.566 15.5357 114.023 19.456 108.352C23.3854 102.682 29.9237 102.244 35.5952 91.3417" stroke="#20201E" stroke-width="2.684"/>
<path d="M135.036 51.6658L143.311 46.4338" stroke="#20201E" stroke-width="2.684"/>
<path d="M152.057 70.4197L160.331 66.4965" stroke="#20201E" stroke-width="2.684"/>
<path d="M167.315 92.1907L176.911 88.2581" stroke="#20201E" stroke-width="2.684"/>
<path d="M179.522 117.076L189.558 113.584" stroke="#20201E" stroke-width="2.684"/>
<path d="M189.118 146.303L199.594 143.252" stroke="#20201E" stroke-width="2.684"/>
<path d="M194.781 175.971L205.698 174.65" stroke="#20201E" stroke-width="2.684"/>
</svg>
