<svg width="216" height="203" viewBox="0 0 216 203" fill="none" xmlns="http://www.w3.org/2000/svg">
<path d="M211.759 168.725C210.576 160.27 208.957 152.208 206.991 144.543L200.671 142.017L204.892 136.969C202.487 128.861 199.691 121.227 196.622 114.051L190.643 112.358L193.631 107.262C190.418 100.436 186.968 94.0687 183.382 88.1408L177.809 87.0225L179.809 82.4185C175.793 76.2232 171.664 70.5621 167.569 65.4252L161.67 64.7785L163.246 60.1824C158.459 54.5585 153.792 49.6656 149.475 45.4857L143.567 45.1539L144.6 40.9249C134.074 31.396 126.63 26.7612 126.63 26.7612L113.255 30.8323C113.255 30.8323 106.859 27.3405 101.627 23.8533C101.627 23.8533 98.1363 12.2229 96.9782 5.82462C95.8107 -0.568879 92.3204 2.33912 91.1623 4.07952C89.9948 5.82462 77.9299 19.2002 77.9299 19.2002C77.9299 19.2002 70.7127 18.2109 65.5758 19.2002C58.0148 20.655 54.5245 25.7444 45.8021 34.0321C39.4363 40.0723 35.6204 45.3722 33.4452 51.0393C31.2639 56.7092 33.8784 56.7092 33.0089 61.9415C32.1333 67.1785 8.58079 106.43 5.96919 111.228C3.34849 116.026 -2.97139 130.696 9.45631 140.015C12.9402 142.632 15.561 143.944 17.7394 144.811C17.7394 144.811 21.2297 143.944 22.5384 142.199C22.7688 141.886 22.8917 141.692 22.9501 141.588C23.0116 141.465 22.9901 141.468 22.9501 141.588C22.8149 141.929 22.5077 143.204 23.8473 144.81C26.0286 147.428 28.8308 147.238 30.3915 147.428C32.7142 147.723 36.9293 145.686 40.4228 140.451C43.9099 135.218 46.0914 133.47 48.7089 130.419C51.3235 127.365 65.7604 120.611 71.3922 111.228C72.698 109.051 75.7518 109.921 77.9301 111.666C80.1114 113.411 92.3209 113.85 97.5564 105.123C97.5564 105.123 100.03 128.066 89.7034 143.943C72.6978 170.107 43.909 176.649 35.1848 201.076H214.009C214.009 192.633 213.563 184.528 212.758 176.737L206.81 173.597L211.844 168.72L211.759 168.725Z" fill="#20201E"/>
<path d="M22.9501 141.588C22.8917 141.692 22.7688 141.886 22.5384 142.199C21.2297 143.944 17.7394 144.811 17.7394 144.811C15.561 143.944 12.9402 142.632 9.45631 140.015C-2.97139 130.696 3.34849 116.026 5.96919 111.228C8.58079 106.43 32.1333 67.1785 33.0089 61.9415C33.8784 56.7092 31.2639 56.7092 33.4452 51.0393C35.6204 45.3722 39.4363 40.0723 45.8021 34.0321C54.5245 25.7444 58.0148 20.655 65.5758 19.2002C70.7127 18.2109 77.9299 19.2002 77.9299 19.2002C77.9299 19.2002 89.9948 5.82462 91.1623 4.07952C92.3204 2.33912 95.8107 -0.568879 96.9782 5.82462C98.1363 12.2229 101.627 23.8533 101.627 23.8533C106.859 27.3405 113.255 30.8323 113.255 30.8323L126.63 26.7612C126.63 26.7612 134.074 31.396 144.6 40.9249L143.567 45.1539L149.475 45.4857C153.792 49.6656 158.459 54.5585 163.246 60.1824L161.67 64.7785L167.569 65.4252C171.664 70.5621 175.793 76.2232 179.809 82.4185L177.809 87.0225L183.382 88.1408C186.968 94.0687 190.418 100.436 193.631 107.262L190.643 112.358L196.622 114.051C199.691 121.227 202.487 128.861 204.892 136.969L200.671 142.017L206.991 144.543C208.957 152.208 210.576 160.27 211.759 168.725L211.844 168.72L206.81 173.597L212.758 176.737C213.563 184.528 214.009 192.633 214.009 201.076H35.1848C43.909 176.649 72.6978 170.107 89.7034 143.943C100.03 128.066 97.5564 105.123 97.5564 105.123C92.3209 113.85 80.1114 113.411 77.9301 111.666C75.7518 109.921 72.698 109.051 71.3922 111.228C65.7604 120.611 51.3235 127.365 48.7089 130.419C46.0914 133.47 43.9099 135.218 40.4228 140.451C36.9293 145.686 32.7142 147.723 30.3915 147.428C28.8308 147.238 26.0286 147.428 23.8473 144.81C22.5077 143.204 22.8149 141.929 22.9501 141.588ZM22.9501 141.588C22.9901 141.468 23.0116 141.465 22.9501 141.588Z" stroke="#20201E" stroke-width="2.684"/>
<path d="M119.642 36.6836C119.642 36.6836 195.818 93.6751 195.818 196.606" stroke="white" stroke-width="2.684"/>
<path d="M103.943 76.2299C105.393 92.5087 97.8348 104.141 97.5459 105.157C97.5459 105.157 115.866 95.7101 117.611 83.2041" stroke="white" stroke-width="2.684"/>
<path d="M97.5244 105.142C97.5244 105.142 109.737 111.106 118.751 107.325" stroke="white" stroke-width="2.684"/>
<path d="M72.6702 44.9578C72.6702 44.9578 59.2594 45.0223 54.7859 52.3684C48.6812 62.4026 55.6615 63.71 55.6615 63.71C55.6615 63.71 62.6357 65.8929 67.4348 59.3505C72.544 52.3838 68.3042 48.0089 68.3042 48.0089L72.6458 44.9572L72.6702 44.9578Z" stroke="white" stroke-width="2.684"/>
<path d="M135.026 51.0612L143.331 45.8387" stroke="white" stroke-width="2.684"/>
<path d="M152.046 69.8119L160.352 65.9108" stroke="white" stroke-width="2.684"/>
<path d="M167.305 91.5829L176.9 87.6503" stroke="white" stroke-width="2.684"/>
<path d="M179.543 116.5L189.548 113.008" stroke="white" stroke-width="2.684"/>
<path d="M189.107 145.727L199.584 142.675" stroke="white" stroke-width="2.684"/>
<path d="M194.802 175.363L205.687 174.073" stroke="white" stroke-width="2.684"/>
</svg>
